<?xml version="1.0" encoding="UTF-8"?>
<svg id="_图层_1" data-name="图层 1" xmlns="http://www.w3.org/2000/svg" xmlns:xlink="http://www.w3.org/1999/xlink" viewBox="0 0 397.65 276.95">
  <defs>
    <style>
      .cls-1 {
        fill: url(#_未命名的渐变_5);
      }

      .cls-2 {
        fill: url(#_未命名的渐变_6);
      }
    </style>
    <linearGradient id="_未命名的渐变_6" data-name="未命名的渐变 6" x1="77.21" y1="279.15" x2="337.9" y2="2.6" gradientTransform="translate(0 278.36) scale(1 -1)" gradientUnits="userSpaceOnUse">
      <stop offset=".21" stop-color="#000"/>
      <stop offset=".26" stop-color="#040404"/>
      <stop offset=".3" stop-color="#0f0f0f"/>
      <stop offset=".35" stop-color="#222"/>
      <stop offset=".39" stop-color="#3c3c3c"/>
      <stop offset=".44" stop-color="#5e5e5e"/>
      <stop offset=".48" stop-color="#888"/>
      <stop offset=".52" stop-color="#b9b9b9"/>
      <stop offset=".56" stop-color="#f1f1f1"/>
      <stop offset=".57" stop-color="#fff"/>
      <stop offset=".59" stop-color="#e1e1e1"/>
      <stop offset=".64" stop-color="#9e9e9e"/>
      <stop offset=".68" stop-color="#666"/>
      <stop offset=".72" stop-color="#3a3a3a"/>
      <stop offset=".75" stop-color="#1b1b1b"/>
      <stop offset=".78" stop-color="#070707"/>
      <stop offset=".8" stop-color="#000"/>
    </linearGradient>
    <linearGradient id="_未命名的渐变_5" data-name="未命名的渐变 5" x1="179.42" y1="253.58" x2="179.42" y2="35.79" gradientTransform="translate(0 278.36) scale(1 -1)" gradientUnits="userSpaceOnUse">
      <stop offset=".08" stop-color="#fff"/>
      <stop offset=".13" stop-color="#dedede"/>
      <stop offset=".22" stop-color="#ababab"/>
      <stop offset=".32" stop-color="#7d7d7d"/>
      <stop offset=".42" stop-color="#575757"/>
      <stop offset=".52" stop-color="#373737"/>
      <stop offset=".62" stop-color="#1f1f1f"/>
      <stop offset=".73" stop-color="#0e0e0e"/>
      <stop offset=".85" stop-color="#040404"/>
      <stop offset="1" stop-color="#000"/>
    </linearGradient>
  </defs>
  <path class="cls-2" d="M20.48.66l219.48,234.79c24.75,26.47,59.36,41.5,95.6,41.5h62.09L170.63,34.72C150.27,12.99,121.82.67,92.04.67H20.47h.01Z"/>
  <g>
    <path d="M307.28,43.4c16.49-4.25,35.42-5.46,51.58-5.46L397.65,0h-59.81c-33.95,0-66.57,13.2-90.97,36.8l-129.21,124.99c27.2-20.07,50.76-37.46,71.32-52.03,46.73-33.11,80.19-56.55,118.29-66.36h.01Z"/>
    <path class="cls-1" d="M307.28,43.4c-38.09,9.81-71.56,33.25-118.29,66.36-20.56,14.57-44.12,31.96-71.32,52.03l-73.39,71L0,275.63h64.01c33.21,0,65.1-13,88.84-36.22l10.94-10.7L358.85,37.94c-16.16,0-35.09,1.21-51.58,5.46h.01Z"/>
  </g>
</svg>
