<?xml version="1.0" encoding="UTF-8"?>
<svg id="gfw-logo" xmlns="http://www.w3.org/2000/svg" version="1.1" xmlns:xlink="http://www.w3.org/1999/xlink" viewBox="0 0 296.58 287.62">
  <defs>
    <radialGradient id="_未命名的渐变_4" data-name="未命名的渐变 4" cx="46.01" cy="61.31" fx="46.01" fy="61.31" r="297.95" gradientUnits="userSpaceOnUse">
      <stop offset="0" stop-color="#4ad3fc"/>
      <stop offset="1" stop-color="#152372"/>
    </radialGradient>
  </defs>
  <path d="M252.69,80.31l34.56-48.39c1.94-2.71,1.17-6.5-1.67-8.24C273.32,16.2,238.26-.76,173.21.03,39.04,7.29,5.31,99.25,1.02,140.09c-4.62,43.92,3.17,125.9,93.66,142.87,95.92,16.72,162.14-16.32,175.77-23.93,1.64-.92,2.78-2.52,3.1-4.37l22.94-130.1c.6-3.42-2.03-6.55-5.5-6.54l-131.4.26c-2.62,0-4.86,1.89-5.32,4.47l-8.03,45.68c-.51,2.87,1.69,5.51,4.61,5.53l57.04.46c3.38.03,5.94,3.07,5.38,6.41l-4.52,26.92s-11.96,15.64-61.46,13.14c-89.97-11.18-63.23-96.18-63.23-96.18,0,0,12.83-48.58,71.57-58.15,58.74-9.57,91.6,15.99,91.6,15.99,2.1.37,4.22-.5,5.46-2.24Z" fill="url(#_未命名的渐变_4)" stroke-width="0"/>
</svg>